<svg width="133" height="59" viewBox="0 0 133 59" fill="none" xmlns="http://www.w3.org/2000/svg"><g clip-path="url(#clip0)"><path d="M66.872 19.04V0m1.074 1.34H.27M1.343 0v59M0 57.66h67.946m-1.343 1.072V48.004" stroke="#BB653B" stroke-width="10"/><path d="M13.39 41.032h-1.531V27.539h6.47c1.374 0 2.476.38 3.306 1.141.83.748 1.245 1.774 1.245 3.078 0 1.685-.7 2.833-2.102 3.445a5.837 5.837 0 01-1.163.387l3.551 5.442H21.35l-3.266-5.177h-4.695v5.177zm0-6.624h4.674c1.442 0 2.435-.449 2.98-1.346.204-.34.306-.774.306-1.304 0-.856-.293-1.529-.878-2.018-.585-.503-1.36-.754-2.327-.754H13.39v5.422zm17.94-5.402v4.525h7.51v1.488h-7.51v4.545h8.409v1.468h-9.94V27.539h9.94v1.467h-8.41zm26.5-1.467v7.684c0 1.794-.537 3.24-1.612 4.341-1.061 1.087-2.442 1.63-4.143 1.63-1.688 0-3.069-.543-4.144-1.63-1.061-1.1-1.592-2.547-1.592-4.341v-7.684h1.531v7.725c0 1.454.436 2.588 1.306 3.403.749.694 1.715 1.04 2.899 1.04s2.157-.346 2.918-1.04c.871-.801 1.307-1.936 1.307-3.403v-7.725h1.53zm17.023 1.467h-4.715v12.026h-1.53V29.007h-4.716v-1.468h10.96v1.467zm11.657-1.63c2.013 0 3.667.673 4.96 2.018 1.265 1.304 1.898 2.935 1.898 4.891 0 1.957-.633 3.588-1.899 4.892-1.292 1.345-2.945 2.018-4.96 2.018-2.013 0-3.666-.673-4.96-2.018-1.265-1.304-1.897-2.935-1.897-4.892 0-1.956.632-3.587 1.898-4.891 1.293-1.345 2.946-2.018 4.96-2.018zm0 12.331c1.605 0 2.905-.523 3.898-1.57.953-1.005 1.429-2.289 1.429-3.852 0-1.562-.476-2.846-1.429-3.852-.993-1.046-2.293-1.57-3.898-1.57-1.606 0-2.905.524-3.899 1.57-.952 1.006-1.429 2.29-1.429 3.852 0 1.563.477 2.847 1.43 3.853.993 1.046 2.292 1.569 3.898 1.569zm24.458-12.168l-5.471 13.493h-1.755l-5.47-13.493h1.674l4.674 11.76 4.674-11.76h1.674zm16.919 13.493h-1.694l-1.653-3.913h-6.695l-1.653 3.913h-1.694l5.735-13.493h1.919l5.735 13.493zm-3.939-5.32l-2.755-6.583-2.756 6.583h5.511z" fill="#4A413E"/><path d="M15.19 17.201v5.326h-.701l-3.295-4.497v4.497h-.605v-5.326h.701l3.296 4.482V17.2h.604zm8.261 5.326h-.668l-.653-1.544h-2.643l-.652 1.544h-.669l2.264-5.326h.757l2.264 5.326zm-1.555-2.1L20.81 17.83l-1.088 2.598h2.175zm7.844-2.647h-1.861v4.747h-.605V17.78h-1.86v-.579h4.326v.58zm7.25 4.747h-.669l-.652-1.544h-2.643l-.653 1.544h-.668l2.264-5.326h.757l2.264 5.326zm-1.555-2.1l-1.088-2.598-1.087 2.598h2.175zm5.133-3.226v4.747h2.908v.58h-3.512V17.2h.604zm6.592 5.326h-.604v-5.326h.604v5.326zm8.26 0h-.668l-.653-1.544h-2.642l-.653 1.544h-.669l2.264-5.326h.758l2.264 5.326zm-1.554-2.1l-1.088-2.598-1.088 2.598h2.176z" fill="#BB653B"/></g><defs><clipPath id="clip0"><path fill="#fff" d="M0 0h133v59H0z"/></clipPath></defs></svg>