<?xml version="1.0" encoding="utf-8"?><svg width="12" height="13" fill="none" xmlns="http://www.w3.org/2000/svg" viewBox="0 0 12 13"><path d="M6.001 3.897a3.071 3.071 0 00-3.076 3.076 3.071 3.071 0 003.076 3.077 3.071 3.071 0 003.076-3.077 3.071 3.071 0 00-3.076-3.076zm0 5.076c-1.1 0-2-.897-2-2s.897-2 2-2 2 .897 2 2-.9 2-2 2zm3.92-5.202a.716.716 0 01-.718.717.718.718 0 11.717-.718zm2.037.728c-.046-.961-.265-1.813-.97-2.514-.7-.702-1.552-.921-2.513-.97-.99-.056-3.96-.056-4.95 0-.958.046-1.81.265-2.514.967-.704.702-.92 1.553-.969 2.514-.056.991-.056 3.96 0 4.951.046.962.265 1.813.97 2.515.703.701 1.552.92 2.513.969.99.056 3.96.056 4.95 0 .961-.045 1.812-.265 2.514-.97.701-.7.92-1.552.969-2.514.056-.99.056-3.957 0-4.948zm-1.28 6.011c-.209.525-.613.93-1.14 1.141-.79.313-2.664.241-3.537.241-.872 0-2.749.07-3.536-.241a2.025 2.025 0 01-1.14-1.14c-.314-.79-.241-2.665-.241-3.538 0-.873-.07-2.75.24-3.537.21-.525.614-.93 1.14-1.14.79-.314 2.665-.242 3.537-.242.873 0 2.75-.07 3.537.241.524.21.929.613 1.14 1.14.313.79.241 2.665.241 3.538 0 .873.072 2.75-.24 3.537z" fill="#7C7C7C"/></svg>