<?xml version="1.0" encoding="utf-8"?><svg viewBox="0 0 77 77" xmlns="http://www.w3.org/2000/svg" xmlns:xlink="http://www.w3.org/1999/xlink"><style>:root>svg{display:none}:root>svg:target{display:block}</style><svg fill="none" viewBox="0 0 16 16" id="ic_arrow-left" xmlns="http://www.w3.org/2000/svg"><path d="M.293 7.293a1 1 0 000 1.414l6.364 6.364a1 1 0 001.414-1.414L2.414 8l5.657-5.657A1 1 0 006.657.93L.293 7.293zM16 7H1v2h15V7z" fill="#C7C7C7"/></svg><svg fill="none" viewBox="0 0 16 16" id="ic_arrow-right" xmlns="http://www.w3.org/2000/svg"><path d="M15.707 7.293a1 1 0 010 1.414l-6.364 6.364a1 1 0 01-1.414-1.414L13.586 8 7.929 2.343A1 1 0 019.343.93l6.364 6.364zM0 7h15v2H0V7z" fill="#fff"/></svg><svg viewBox="0 0 9 17" id="ic_fb" xmlns="http://www.w3.org/2000/svg"><path d="M8.216 0H7.198c-2.83 0-5.134 2.015-5.134 4.492v1.896H.324c-.179 0-.324.127-.324.284v2.272c0 .156.145.284.324.284h1.74v6.956c0 .157.146.284.325.284h2.595c.18 0 .325-.127.325-.284V9.228H7.89c.179 0 .324-.128.324-.284V6.672c0-.157-.145-.284-.324-.284H5.309V4.492c0-.911.847-1.653 1.889-1.653h1.018c.18 0 .325-.127.325-.284V.284C8.54.127 8.395 0 8.216 0z"/></svg><svg fill="none" viewBox="0 0 77 77" id="ic_play" xmlns="http://www.w3.org/2000/svg"><circle cx="38.5" cy="38.5" r="38.5" fill="#E2243C"/><path d="M48.293 36.498a2 2 0 010 3.004l-10.722 9.433c-1.292 1.136-3.321.219-3.321-1.502V28.567c0-1.72 2.029-2.638 3.321-1.502l10.722 9.433z" fill="#fff"/></svg><svg fill="none" viewBox="0 0 17 18" id="ic_submit" xmlns="http://www.w3.org/2000/svg"><path d="M5 7.667L8.404 11 13 5M16 9.685A7.162 7.162 0 011.756 8.172M9.635 1.807a7.162 7.162 0 00-7.879 6.365" stroke="#fff"/></svg><svg fill="none" viewBox="0 0 23 23" id="ic_tg" xmlns="http://www.w3.org/2000/svg"><path d="M11.5 0C5.147 0 0 5.147 0 11.5S5.147 23 11.5 23 23 17.853 23 11.5 17.853 0 11.5 0zm5.648 7.878l-1.887 8.894c-.14.631-.515.784-1.039.487l-2.875-2.119-1.387 1.336c-.153.153-.282.283-.58.283l.205-2.927 5.328-4.813c.232-.204-.051-.32-.357-.116L7.97 13.05l-2.838-.886c-.616-.195-.63-.617.13-.913L16.35 6.974c.515-.185.965.125.798.904z" fill="#08C"/></svg><svg viewBox="0 0 16 13" id="ic_tw" xmlns="http://www.w3.org/2000/svg"><path d="M16 1.543a6.872 6.872 0 01-1.645 1.696 9.368 9.368 0 01-.376 3.066 9.453 9.453 0 01-1.177 2.517 9.91 9.91 0 01-1.868 2.143c-.724.615-1.597 1.11-2.62 1.482a9.666 9.666 0 01-3.278.548A9.106 9.106 0 010 11.523c.237.027.5.04.792.04a6.42 6.42 0 004.07-1.4 3.214 3.214 0 01-1.908-.65 3.235 3.235 0 01-1.157-1.625c.223.034.43.051.62.051.29 0 .578-.037.862-.112a3.259 3.259 0 01-1.888-1.126A3.201 3.201 0 01.65 4.609v-.04c.46.257.954.395 1.482.416a3.275 3.275 0 01-1.066-1.168A3.195 3.195 0 01.67 2.254c0-.596.149-1.147.447-1.655a9.373 9.373 0 002.985 2.426A9.22 9.22 0 007.878 4.03a3.643 3.643 0 01-.081-.75c0-.908.318-1.68.954-2.316A3.169 3.169 0 0111.076 0c.948 0 1.746.345 2.396 1.036a6.43 6.43 0 002.081-.792 3.184 3.184 0 01-1.441 1.807A6.534 6.534 0 0016 1.543z"/></svg><svg fill="none" viewBox="0 0 20 20" id="ic_vb" xmlns="http://www.w3.org/2000/svg"><path d="M17.745 1.948c-.524-.457-2.64-1.914-7.36-1.934 0 0-5.565-.316-8.276 2.043C.602 3.487.07 5.584.013 8.18c-.058 2.597-.128 7.464 4.819 8.784h.004l-.004 2.015s-.033.817.535.98c.684.204 1.088-.417 1.743-1.085.358-.367.852-.906 1.227-1.316 3.386.27 5.985-.348 6.281-.438.684-.21 4.552-.68 5.178-5.546.65-5.023-.313-8.194-2.051-9.627zm.572 9.26c-.531 4.062-3.666 4.32-4.242 4.496-.247.074-2.534.613-5.404.437 0 0-2.142 2.449-2.81 3.086-.218.207-.457.187-.452-.223 0-.27.016-3.347.016-3.347-.004 0-.004 0 0 0-4.193-1.102-3.946-5.246-3.9-7.413.045-2.168.477-3.945 1.754-5.14 2.294-1.973 7.019-1.68 7.019-1.68 3.99.016 5.902 1.156 6.347 1.539 1.47 1.195 2.22 4.054 1.672 8.245zm-5.725-3.156c.016.336-.515.36-.532.024-.045-.86-.469-1.278-1.342-1.324-.354-.02-.322-.524.029-.504 1.149.058 1.787.683 1.845 1.804zm.836.442c.041-1.656-1.05-2.953-3.122-3.098-.35-.023-.313-.527.037-.504 2.389.164 3.662 1.723 3.616 3.613-.004.336-.54.32-.531-.011zm1.936.523c.004.336-.532.34-.532.004-.024-3.183-2.26-4.918-4.975-4.937-.35-.004-.35-.504 0-.504 3.036.02 5.478 2.008 5.507 5.437zm-.466 3.832v.007c-.444.742-1.276 1.563-2.133 1.3l-.008-.01c-.87-.231-2.917-1.231-4.21-2.208-.667-.5-1.277-1.09-1.746-1.656a12.643 12.643 0 01-1.269-1.82c-.877-1.503-1.07-2.175-1.07-2.175-.277-.813.584-1.602 1.37-2.023h.009c.379-.188.741-.125.984.152 0 0 .511.578.73.863.205.266.481.691.626.93.25.425.094.859-.153 1.039l-.494.375c-.251.19-.218.546-.218.546s.733 2.629 3.472 3.293c0 0 .375.031.576-.207l.396-.469c.19-.234.646-.383 1.095-.144.606.324 1.376.828 1.887 1.285.288.222.354.562.156.921z" fill="#8F5DB7"/></svg><svg viewBox="0 0 19 11" id="ic_vk" xmlns="http://www.w3.org/2000/svg"><path d="M17.57 8.059c-.393-.414-.84-.785-1.27-1.143-.154-.128-.313-.26-.466-.39-.438-.377-.454-.519-.107-.947.24-.295.495-.59.742-.876.224-.26.455-.527.677-.796l.045-.055c.424-.515.862-1.047 1.095-1.689.06-.17.124-.418-.021-.627-.145-.208-.427-.272-.627-.301a1.946 1.946 0 00-.287-.017l-2.774-.002h-.023c-.42 0-.702.174-.864.53a13.74 13.74 0 01-.519 1.05c-.385.688-.875 1.48-1.584 2.141l-.03.028c-.084.08-.179.169-.248.169a.133.133 0 01-.035-.006c-.147-.05-.246-.362-.241-.507v-.006L11.03 1.8l-.003-.03c-.07-.457-.226-.742-.817-.843a.278.278 0 00-.048-.004H7.278c-.47 0-.729.168-.972.419-.066.067-.202.206-.135.376.07.172.292.208.365.22.361.06.564.254.622.593.1.588.113 1.216.039 1.975a1.49 1.49 0 01-.129.514c-.015.032-.07.138-.127.138-.018 0-.07-.006-.165-.063-.224-.135-.387-.327-.578-.564A12.863 12.863 0 014.53 1.817a.986.986 0 00-.92-.592c-.46-.006-.878-.01-1.276-.01-.435 0-.839.004-1.232.012-.337.005-.57.093-.693.263s-.115.394.024.664C1.544 4.32 2.55 5.896 3.697 7.261c.804.956 1.61 1.618 2.536 2.082.977.49 2.071.729 3.345.729.145 0 .294-.003.445-.01.74-.031 1.015-.266 1.05-.9.016-.323.057-.662.238-.951.114-.183.22-.183.256-.183.067 0 .151.028.241.079.161.092.3.216.413.324l.317.31c.228.224.464.456.71.675.538.481 1.132.693 1.813.647h2.56a.755.755 0 00.602-.34c.16-.248.157-.564-.008-.847a4.587 4.587 0 00-.645-.817z"/></svg><svg fill="none" viewBox="0 0 21 24" id="ic_wa" xmlns="http://www.w3.org/2000/svg"><path d="M17.855 4.552a10.328 10.328 0 00-7.36-3.052C4.758 1.5.09 6.169.09 11.906c0 1.833.478 3.624 1.388 5.203L0 22.5l5.517-1.448c1.519.83 3.23 1.265 4.974 1.265h.004C16.228 22.317 21 17.648 21 11.911c0-2.78-1.181-5.39-3.145-7.36zm-7.36 16.012A8.634 8.634 0 016.09 19.36l-.314-.187-3.272.858.872-3.193-.206-.328a8.62 8.62 0 01-1.322-4.603c0-4.767 3.881-8.648 8.653-8.648 2.31 0 4.481.9 6.113 2.536 1.63 1.636 2.634 3.806 2.63 6.117 0 4.772-3.98 8.653-8.748 8.653zm4.744-6.478c-.258-.131-1.537-.76-1.777-.844-.239-.089-.412-.131-.585.131-.174.263-.67.844-.825 1.022-.15.174-.305.197-.563.066-1.528-.764-2.531-1.364-3.539-3.094-.267-.46.267-.426.764-1.42.084-.174.042-.324-.023-.455-.066-.131-.586-1.41-.802-1.931-.21-.506-.426-.436-.586-.445-.15-.01-.323-.01-.497-.01a.963.963 0 00-.694.324c-.239.262-.909.89-.909 2.17 0 1.28.933 2.517 1.06 2.69.13.174 1.832 2.8 4.443 3.929 1.65.712 2.297.773 3.122.651.502-.075 1.538-.628 1.753-1.237.216-.61.216-1.13.15-1.238-.06-.117-.234-.182-.492-.31z" fill="#128C7E"/></svg></svg>